<svg width="18" height="18" viewBox="0 0 18 18" fill="none" xmlns="http://www.w3.org/2000/svg">
<path d="M13.1667 9.83333L9.83337 17.3333C9.17033 17.3333 8.53445 17.0699 8.06561 16.6011C7.59677 16.1323 7.33337 15.4964 7.33337 14.8333V11.5H2.61671C2.37512 11.5027 2.13582 11.4529 1.9154 11.354C1.69497 11.2551 1.4987 11.1094 1.34016 10.9271C1.18162 10.7447 1.06462 10.5301 0.997258 10.2981C0.929895 10.0661 0.913785 9.8222 0.950041 9.58333L2.10004 2.08333C2.16031 1.68591 2.36218 1.32366 2.66845 1.06332C2.97473 0.802991 3.36477 0.662118 3.76671 0.666662H13.1667M13.1667 9.83333V0.666662M13.1667 9.83333H15.6667C16.1087 9.83333 16.5327 9.65773 16.8452 9.34517C17.1578 9.03261 17.3334 8.60869 17.3334 8.16666V2.33333C17.3334 1.8913 17.1578 1.46738 16.8452 1.15482C16.5327 0.842257 16.1087 0.666662 15.6667 0.666662H13.1667" stroke="white" stroke-linecap="round" stroke-linejoin="round"/>
</svg>
