<svg width="20" height="20" viewBox="0 0 20 20" fill="none" xmlns="http://www.w3.org/2000/svg">
<path d="M5.83329 9.16667L9.16663 1.66667C9.82967 1.66667 10.4656 1.93006 10.9344 2.3989C11.4032 2.86775 11.6666 3.50363 11.6666 4.16667V7.5H16.3833C16.6249 7.49727 16.8642 7.54709 17.0846 7.64602C17.305 7.74495 17.5013 7.89062 17.6598 8.07293C17.8184 8.25525 17.9354 8.46986 18.0027 8.70188C18.0701 8.93391 18.0862 9.1778 18.05 9.41667L16.9 16.9167C16.8397 17.3141 16.6378 17.6763 16.3315 17.9367C16.0253 18.197 15.6352 18.3379 15.2333 18.3333H5.83329M5.83329 9.16667V18.3333M5.83329 9.16667H3.33329C2.89127 9.16667 2.46734 9.34227 2.15478 9.65483C1.84222 9.96739 1.66663 10.3913 1.66663 10.8333V16.6667C1.66663 17.1087 1.84222 17.5326 2.15478 17.8452C2.46734 18.1577 2.89127 18.3333 3.33329 18.3333H5.83329" stroke="white" stroke-linecap="round" stroke-linejoin="round"/>
</svg>
