<svg width="46" height="20" viewBox="0 0 46 20" fill="none" xmlns="http://www.w3.org/2000/svg">
<rect width="46" height="20" rx="8" fill="#FBF3AD"/>
<path d="M10.304 7.976V14H8.96V5.48H10.064L14.888 11.636V5.492H16.244V14H15.068L10.304 7.976ZM24.0032 12.812V14H18.1592V5.48H23.8952V6.668H19.5032V9.092H23.3072V10.208H19.5032V12.812H24.0032ZM28.4137 5.516H29.6737L30.7297 8.408L31.7977 5.516H33.0577L31.5937 9.308L32.8657 12.44L35.5177 5.48H36.9937L33.5017 14H32.3377L30.7417 10.184L29.1337 14H27.9577L24.4777 5.48H25.9417L28.6057 12.44L29.8777 9.308L28.4137 5.516Z" fill="#887B06"/>
</svg>
